<mxfile host="app.diagrams.net" agent="Mozilla/5.0 (Windows NT 10.0; Win64; x64) AppleWebKit/537.36 (KHTML, like Gecko) Chrome/131.0.0.0 Safari/537.36 Edg/131.0.0.0" version="25.0.3">
  <diagram name="Page-1" id="IC2KCkqAi2Nd4JaMHpeQ">
    <mxGraphModel dx="4391" dy="1263" grid="0" gridSize="10" guides="1" tooltips="1" connect="1" arrows="1" fold="1" page="0" pageScale="1" pageWidth="827" pageHeight="1169" math="0" shadow="0">
      <root>
        <mxCell id="0" />
        <mxCell id="1" parent="0" />
        <mxCell id="qV6dKlDI1EXLV0EOjrcU-1" value="Personne" style="shape=table;startSize=30;container=1;collapsible=0;childLayout=tableLayout;strokeColor=default;fontSize=16;" vertex="1" parent="1">
          <mxGeometry x="470" y="290" width="120" height="150" as="geometry" />
        </mxCell>
        <mxCell id="qV6dKlDI1EXLV0EOjrcU-2" value="" style="shape=tableRow;horizontal=0;startSize=0;swimlaneHead=0;swimlaneBody=0;strokeColor=inherit;top=0;left=0;bottom=0;right=0;collapsible=0;dropTarget=0;fillColor=none;points=[[0,0.5],[1,0.5]];portConstraint=eastwest;fontSize=16;" vertex="1" parent="qV6dKlDI1EXLV0EOjrcU-1">
          <mxGeometry y="30" width="120" height="40" as="geometry" />
        </mxCell>
        <mxCell id="qV6dKlDI1EXLV0EOjrcU-3" value="Id" style="shape=partialRectangle;html=1;whiteSpace=wrap;connectable=0;strokeColor=inherit;overflow=hidden;fillColor=none;top=0;left=0;bottom=0;right=0;pointerEvents=1;fontSize=16;" vertex="1" parent="qV6dKlDI1EXLV0EOjrcU-2">
          <mxGeometry width="60" height="40" as="geometry">
            <mxRectangle width="60" height="40" as="alternateBounds" />
          </mxGeometry>
        </mxCell>
        <mxCell id="qV6dKlDI1EXLV0EOjrcU-5" value="Nom" style="shape=partialRectangle;html=1;whiteSpace=wrap;connectable=0;strokeColor=inherit;overflow=hidden;fillColor=none;top=0;left=0;bottom=0;right=0;pointerEvents=1;fontSize=16;" vertex="1" parent="qV6dKlDI1EXLV0EOjrcU-2">
          <mxGeometry x="60" width="60" height="40" as="geometry">
            <mxRectangle width="60" height="40" as="alternateBounds" />
          </mxGeometry>
        </mxCell>
        <mxCell id="qV6dKlDI1EXLV0EOjrcU-6" value="" style="shape=tableRow;horizontal=0;startSize=0;swimlaneHead=0;swimlaneBody=0;strokeColor=inherit;top=0;left=0;bottom=0;right=0;collapsible=0;dropTarget=0;fillColor=none;points=[[0,0.5],[1,0.5]];portConstraint=eastwest;fontSize=16;" vertex="1" parent="qV6dKlDI1EXLV0EOjrcU-1">
          <mxGeometry y="70" width="120" height="40" as="geometry" />
        </mxCell>
        <mxCell id="qV6dKlDI1EXLV0EOjrcU-7" value="1" style="shape=partialRectangle;html=1;whiteSpace=wrap;connectable=0;strokeColor=inherit;overflow=hidden;fillColor=none;top=0;left=0;bottom=0;right=0;pointerEvents=1;fontSize=16;" vertex="1" parent="qV6dKlDI1EXLV0EOjrcU-6">
          <mxGeometry width="60" height="40" as="geometry">
            <mxRectangle width="60" height="40" as="alternateBounds" />
          </mxGeometry>
        </mxCell>
        <mxCell id="qV6dKlDI1EXLV0EOjrcU-9" value="..." style="shape=partialRectangle;html=1;whiteSpace=wrap;connectable=0;strokeColor=inherit;overflow=hidden;fillColor=none;top=0;left=0;bottom=0;right=0;pointerEvents=1;fontSize=16;" vertex="1" parent="qV6dKlDI1EXLV0EOjrcU-6">
          <mxGeometry x="60" width="60" height="40" as="geometry">
            <mxRectangle width="60" height="40" as="alternateBounds" />
          </mxGeometry>
        </mxCell>
        <mxCell id="qV6dKlDI1EXLV0EOjrcU-10" value="" style="shape=tableRow;horizontal=0;startSize=0;swimlaneHead=0;swimlaneBody=0;strokeColor=inherit;top=0;left=0;bottom=0;right=0;collapsible=0;dropTarget=0;fillColor=none;points=[[0,0.5],[1,0.5]];portConstraint=eastwest;fontSize=16;" vertex="1" parent="qV6dKlDI1EXLV0EOjrcU-1">
          <mxGeometry y="110" width="120" height="40" as="geometry" />
        </mxCell>
        <mxCell id="qV6dKlDI1EXLV0EOjrcU-11" value="2" style="shape=partialRectangle;html=1;whiteSpace=wrap;connectable=0;strokeColor=inherit;overflow=hidden;fillColor=none;top=0;left=0;bottom=0;right=0;pointerEvents=1;fontSize=16;" vertex="1" parent="qV6dKlDI1EXLV0EOjrcU-10">
          <mxGeometry width="60" height="40" as="geometry">
            <mxRectangle width="60" height="40" as="alternateBounds" />
          </mxGeometry>
        </mxCell>
        <mxCell id="qV6dKlDI1EXLV0EOjrcU-13" value="..." style="shape=partialRectangle;html=1;whiteSpace=wrap;connectable=0;strokeColor=inherit;overflow=hidden;fillColor=none;top=0;left=0;bottom=0;right=0;pointerEvents=1;fontSize=16;" vertex="1" parent="qV6dKlDI1EXLV0EOjrcU-10">
          <mxGeometry x="60" width="60" height="40" as="geometry">
            <mxRectangle width="60" height="40" as="alternateBounds" />
          </mxGeometry>
        </mxCell>
        <mxCell id="qV6dKlDI1EXLV0EOjrcU-14" value="Adresse" style="shape=table;startSize=30;container=1;collapsible=0;childLayout=tableLayout;strokeColor=default;fontSize=16;" vertex="1" parent="1">
          <mxGeometry x="40" y="290" width="280" height="150" as="geometry" />
        </mxCell>
        <mxCell id="qV6dKlDI1EXLV0EOjrcU-15" value="" style="shape=tableRow;horizontal=0;startSize=0;swimlaneHead=0;swimlaneBody=0;strokeColor=inherit;top=0;left=0;bottom=0;right=0;collapsible=0;dropTarget=0;fillColor=none;points=[[0,0.5],[1,0.5]];portConstraint=eastwest;fontSize=16;" vertex="1" parent="qV6dKlDI1EXLV0EOjrcU-14">
          <mxGeometry y="30" width="280" height="40" as="geometry" />
        </mxCell>
        <mxCell id="qV6dKlDI1EXLV0EOjrcU-16" value="Id" style="shape=partialRectangle;html=1;whiteSpace=wrap;connectable=0;strokeColor=inherit;overflow=hidden;fillColor=none;top=0;left=0;bottom=0;right=0;pointerEvents=1;fontSize=16;" vertex="1" parent="qV6dKlDI1EXLV0EOjrcU-15">
          <mxGeometry width="80" height="40" as="geometry">
            <mxRectangle width="80" height="40" as="alternateBounds" />
          </mxGeometry>
        </mxCell>
        <mxCell id="qV6dKlDI1EXLV0EOjrcU-17" value="Rue" style="shape=partialRectangle;html=1;whiteSpace=wrap;connectable=0;strokeColor=inherit;overflow=hidden;fillColor=none;top=0;left=0;bottom=0;right=0;pointerEvents=1;fontSize=16;" vertex="1" parent="qV6dKlDI1EXLV0EOjrcU-15">
          <mxGeometry x="80" width="80" height="40" as="geometry">
            <mxRectangle width="80" height="40" as="alternateBounds" />
          </mxGeometry>
        </mxCell>
        <mxCell id="qV6dKlDI1EXLV0EOjrcU-18" value="id_personne" style="shape=partialRectangle;html=1;whiteSpace=wrap;connectable=0;strokeColor=inherit;overflow=hidden;fillColor=none;top=0;left=0;bottom=0;right=0;pointerEvents=1;fontSize=16;" vertex="1" parent="qV6dKlDI1EXLV0EOjrcU-15">
          <mxGeometry x="160" width="120" height="40" as="geometry">
            <mxRectangle width="120" height="40" as="alternateBounds" />
          </mxGeometry>
        </mxCell>
        <mxCell id="qV6dKlDI1EXLV0EOjrcU-19" value="" style="shape=tableRow;horizontal=0;startSize=0;swimlaneHead=0;swimlaneBody=0;strokeColor=inherit;top=0;left=0;bottom=0;right=0;collapsible=0;dropTarget=0;fillColor=none;points=[[0,0.5],[1,0.5]];portConstraint=eastwest;fontSize=16;" vertex="1" parent="qV6dKlDI1EXLV0EOjrcU-14">
          <mxGeometry y="70" width="280" height="40" as="geometry" />
        </mxCell>
        <mxCell id="qV6dKlDI1EXLV0EOjrcU-20" value="1" style="shape=partialRectangle;html=1;whiteSpace=wrap;connectable=0;strokeColor=inherit;overflow=hidden;fillColor=none;top=0;left=0;bottom=0;right=0;pointerEvents=1;fontSize=16;" vertex="1" parent="qV6dKlDI1EXLV0EOjrcU-19">
          <mxGeometry width="80" height="40" as="geometry">
            <mxRectangle width="80" height="40" as="alternateBounds" />
          </mxGeometry>
        </mxCell>
        <mxCell id="qV6dKlDI1EXLV0EOjrcU-21" value="..." style="shape=partialRectangle;html=1;whiteSpace=wrap;connectable=0;strokeColor=inherit;overflow=hidden;fillColor=none;top=0;left=0;bottom=0;right=0;pointerEvents=1;fontSize=16;" vertex="1" parent="qV6dKlDI1EXLV0EOjrcU-19">
          <mxGeometry x="80" width="80" height="40" as="geometry">
            <mxRectangle width="80" height="40" as="alternateBounds" />
          </mxGeometry>
        </mxCell>
        <mxCell id="qV6dKlDI1EXLV0EOjrcU-22" value="2" style="shape=partialRectangle;html=1;whiteSpace=wrap;connectable=0;strokeColor=inherit;overflow=hidden;fillColor=none;top=0;left=0;bottom=0;right=0;pointerEvents=1;fontSize=16;" vertex="1" parent="qV6dKlDI1EXLV0EOjrcU-19">
          <mxGeometry x="160" width="120" height="40" as="geometry">
            <mxRectangle width="120" height="40" as="alternateBounds" />
          </mxGeometry>
        </mxCell>
        <mxCell id="qV6dKlDI1EXLV0EOjrcU-23" value="" style="shape=tableRow;horizontal=0;startSize=0;swimlaneHead=0;swimlaneBody=0;strokeColor=inherit;top=0;left=0;bottom=0;right=0;collapsible=0;dropTarget=0;fillColor=none;points=[[0,0.5],[1,0.5]];portConstraint=eastwest;fontSize=16;" vertex="1" parent="qV6dKlDI1EXLV0EOjrcU-14">
          <mxGeometry y="110" width="280" height="40" as="geometry" />
        </mxCell>
        <mxCell id="qV6dKlDI1EXLV0EOjrcU-24" value="2" style="shape=partialRectangle;html=1;whiteSpace=wrap;connectable=0;strokeColor=inherit;overflow=hidden;fillColor=none;top=0;left=0;bottom=0;right=0;pointerEvents=1;fontSize=16;" vertex="1" parent="qV6dKlDI1EXLV0EOjrcU-23">
          <mxGeometry width="80" height="40" as="geometry">
            <mxRectangle width="80" height="40" as="alternateBounds" />
          </mxGeometry>
        </mxCell>
        <mxCell id="qV6dKlDI1EXLV0EOjrcU-25" value="..." style="shape=partialRectangle;html=1;whiteSpace=wrap;connectable=0;strokeColor=inherit;overflow=hidden;fillColor=none;top=0;left=0;bottom=0;right=0;pointerEvents=1;fontSize=16;" vertex="1" parent="qV6dKlDI1EXLV0EOjrcU-23">
          <mxGeometry x="80" width="80" height="40" as="geometry">
            <mxRectangle width="80" height="40" as="alternateBounds" />
          </mxGeometry>
        </mxCell>
        <mxCell id="qV6dKlDI1EXLV0EOjrcU-26" value="1" style="shape=partialRectangle;html=1;whiteSpace=wrap;connectable=0;strokeColor=inherit;overflow=hidden;fillColor=none;top=0;left=0;bottom=0;right=0;pointerEvents=1;fontSize=16;" vertex="1" parent="qV6dKlDI1EXLV0EOjrcU-23">
          <mxGeometry x="160" width="120" height="40" as="geometry">
            <mxRectangle width="120" height="40" as="alternateBounds" />
          </mxGeometry>
        </mxCell>
        <mxCell id="qV6dKlDI1EXLV0EOjrcU-27" style="edgeStyle=orthogonalEdgeStyle;rounded=0;orthogonalLoop=1;jettySize=auto;html=1;exitX=1;exitY=0.5;exitDx=0;exitDy=0;entryX=0;entryY=0.5;entryDx=0;entryDy=0;" edge="1" parent="1" source="qV6dKlDI1EXLV0EOjrcU-15" target="qV6dKlDI1EXLV0EOjrcU-2">
          <mxGeometry relative="1" as="geometry" />
        </mxCell>
        <mxCell id="qV6dKlDI1EXLV0EOjrcU-28" value="Personne" style="shape=table;startSize=33;container=1;collapsible=0;childLayout=tableLayout;strokeColor=default;fontSize=16;" vertex="1" parent="1">
          <mxGeometry x="2379" y="658" width="560" height="160" as="geometry" />
        </mxCell>
        <mxCell id="qV6dKlDI1EXLV0EOjrcU-29" value="" style="shape=tableRow;horizontal=0;startSize=0;swimlaneHead=0;swimlaneBody=0;strokeColor=inherit;top=0;left=0;bottom=0;right=0;collapsible=0;dropTarget=0;fillColor=none;points=[[0,0.5],[1,0.5]];portConstraint=eastwest;fontSize=16;" vertex="1" parent="qV6dKlDI1EXLV0EOjrcU-28">
          <mxGeometry y="33" width="560" height="49" as="geometry" />
        </mxCell>
        <mxCell id="qV6dKlDI1EXLV0EOjrcU-30" value="Id" style="shape=partialRectangle;html=1;whiteSpace=wrap;connectable=0;strokeColor=inherit;overflow=hidden;fillColor=none;top=0;left=0;bottom=0;right=0;pointerEvents=1;fontSize=16;" vertex="1" parent="qV6dKlDI1EXLV0EOjrcU-29">
          <mxGeometry width="370" height="49" as="geometry">
            <mxRectangle width="370" height="49" as="alternateBounds" />
          </mxGeometry>
        </mxCell>
        <mxCell id="qV6dKlDI1EXLV0EOjrcU-31" value="Id_source" style="shape=partialRectangle;html=1;whiteSpace=wrap;connectable=0;strokeColor=inherit;overflow=hidden;fillColor=none;top=0;left=0;bottom=0;right=0;pointerEvents=1;fontSize=16;" vertex="1" parent="qV6dKlDI1EXLV0EOjrcU-29">
          <mxGeometry x="370" width="110" height="49" as="geometry">
            <mxRectangle width="110" height="49" as="alternateBounds" />
          </mxGeometry>
        </mxCell>
        <mxCell id="qV6dKlDI1EXLV0EOjrcU-38" value="Nom" style="shape=partialRectangle;html=1;whiteSpace=wrap;connectable=0;strokeColor=inherit;overflow=hidden;fillColor=none;top=0;left=0;bottom=0;right=0;pointerEvents=1;fontSize=16;" vertex="1" parent="qV6dKlDI1EXLV0EOjrcU-29">
          <mxGeometry x="480" width="80" height="49" as="geometry">
            <mxRectangle width="80" height="49" as="alternateBounds" />
          </mxGeometry>
        </mxCell>
        <mxCell id="qV6dKlDI1EXLV0EOjrcU-32" value="" style="shape=tableRow;horizontal=0;startSize=0;swimlaneHead=0;swimlaneBody=0;strokeColor=inherit;top=0;left=0;bottom=0;right=0;collapsible=0;dropTarget=0;fillColor=none;points=[[0,0.5],[1,0.5]];portConstraint=eastwest;fontSize=16;" vertex="1" parent="qV6dKlDI1EXLV0EOjrcU-28">
          <mxGeometry y="82" width="560" height="39" as="geometry" />
        </mxCell>
        <mxCell id="qV6dKlDI1EXLV0EOjrcU-33" value="380c0dac-7900-4b0c-bb08-28cdd613be5d" style="shape=partialRectangle;html=1;whiteSpace=wrap;connectable=0;strokeColor=inherit;overflow=hidden;fillColor=none;top=0;left=0;bottom=0;right=0;pointerEvents=1;fontSize=16;" vertex="1" parent="qV6dKlDI1EXLV0EOjrcU-32">
          <mxGeometry width="370" height="39" as="geometry">
            <mxRectangle width="370" height="39" as="alternateBounds" />
          </mxGeometry>
        </mxCell>
        <mxCell id="qV6dKlDI1EXLV0EOjrcU-34" value="1" style="shape=partialRectangle;html=1;whiteSpace=wrap;connectable=0;strokeColor=inherit;overflow=hidden;fillColor=none;top=0;left=0;bottom=0;right=0;pointerEvents=1;fontSize=16;" vertex="1" parent="qV6dKlDI1EXLV0EOjrcU-32">
          <mxGeometry x="370" width="110" height="39" as="geometry">
            <mxRectangle width="110" height="39" as="alternateBounds" />
          </mxGeometry>
        </mxCell>
        <mxCell id="qV6dKlDI1EXLV0EOjrcU-39" value="..." style="shape=partialRectangle;html=1;whiteSpace=wrap;connectable=0;strokeColor=inherit;overflow=hidden;fillColor=none;top=0;left=0;bottom=0;right=0;pointerEvents=1;fontSize=16;" vertex="1" parent="qV6dKlDI1EXLV0EOjrcU-32">
          <mxGeometry x="480" width="80" height="39" as="geometry">
            <mxRectangle width="80" height="39" as="alternateBounds" />
          </mxGeometry>
        </mxCell>
        <mxCell id="qV6dKlDI1EXLV0EOjrcU-35" value="" style="shape=tableRow;horizontal=0;startSize=0;swimlaneHead=0;swimlaneBody=0;strokeColor=inherit;top=0;left=0;bottom=0;right=0;collapsible=0;dropTarget=0;fillColor=none;points=[[0,0.5],[1,0.5]];portConstraint=eastwest;fontSize=16;" vertex="1" parent="qV6dKlDI1EXLV0EOjrcU-28">
          <mxGeometry y="121" width="560" height="39" as="geometry" />
        </mxCell>
        <mxCell id="qV6dKlDI1EXLV0EOjrcU-36" value="8ba35c98-e479-4b97-8c4c-9f4465d0ec52" style="shape=partialRectangle;html=1;whiteSpace=wrap;connectable=0;strokeColor=inherit;overflow=hidden;fillColor=none;top=0;left=0;bottom=0;right=0;pointerEvents=1;fontSize=16;" vertex="1" parent="qV6dKlDI1EXLV0EOjrcU-35">
          <mxGeometry width="370" height="39" as="geometry">
            <mxRectangle width="370" height="39" as="alternateBounds" />
          </mxGeometry>
        </mxCell>
        <mxCell id="qV6dKlDI1EXLV0EOjrcU-37" value="2" style="shape=partialRectangle;html=1;whiteSpace=wrap;connectable=0;strokeColor=inherit;overflow=hidden;fillColor=none;top=0;left=0;bottom=0;right=0;pointerEvents=1;fontSize=16;" vertex="1" parent="qV6dKlDI1EXLV0EOjrcU-35">
          <mxGeometry x="370" width="110" height="39" as="geometry">
            <mxRectangle width="110" height="39" as="alternateBounds" />
          </mxGeometry>
        </mxCell>
        <mxCell id="qV6dKlDI1EXLV0EOjrcU-40" value="..." style="shape=partialRectangle;html=1;whiteSpace=wrap;connectable=0;strokeColor=inherit;overflow=hidden;fillColor=none;top=0;left=0;bottom=0;right=0;pointerEvents=1;fontSize=16;" vertex="1" parent="qV6dKlDI1EXLV0EOjrcU-35">
          <mxGeometry x="480" width="80" height="39" as="geometry">
            <mxRectangle width="80" height="39" as="alternateBounds" />
          </mxGeometry>
        </mxCell>
        <mxCell id="qV6dKlDI1EXLV0EOjrcU-97" style="edgeStyle=orthogonalEdgeStyle;rounded=0;orthogonalLoop=1;jettySize=auto;html=1;exitX=0.75;exitY=0;exitDx=0;exitDy=0;entryX=0.25;entryY=0;entryDx=0;entryDy=0;" edge="1" parent="1" source="qV6dKlDI1EXLV0EOjrcU-41" target="qV6dKlDI1EXLV0EOjrcU-28">
          <mxGeometry relative="1" as="geometry" />
        </mxCell>
        <mxCell id="qV6dKlDI1EXLV0EOjrcU-109" style="edgeStyle=orthogonalEdgeStyle;rounded=0;orthogonalLoop=1;jettySize=auto;html=1;exitX=0.5;exitY=0;exitDx=0;exitDy=0;entryX=0.75;entryY=0;entryDx=0;entryDy=0;" edge="1" parent="1" source="qV6dKlDI1EXLV0EOjrcU-41" target="qV6dKlDI1EXLV0EOjrcU-28">
          <mxGeometry relative="1" as="geometry">
            <Array as="points">
              <mxPoint x="690" y="554" />
              <mxPoint x="2799" y="554" />
            </Array>
          </mxGeometry>
        </mxCell>
        <mxCell id="qV6dKlDI1EXLV0EOjrcU-41" value="Adresse" style="shape=table;startSize=30;container=1;collapsible=0;childLayout=tableLayout;strokeColor=default;fontSize=16;" vertex="1" parent="1">
          <mxGeometry x="-500" y="670" width="2380" height="147.99995930989587" as="geometry" />
        </mxCell>
        <mxCell id="qV6dKlDI1EXLV0EOjrcU-42" value="" style="shape=tableRow;horizontal=0;startSize=0;swimlaneHead=0;swimlaneBody=0;strokeColor=inherit;top=0;left=0;bottom=0;right=0;collapsible=0;dropTarget=0;fillColor=none;points=[[0,0.5],[1,0.5]];portConstraint=eastwest;fontSize=16;" vertex="1" parent="qV6dKlDI1EXLV0EOjrcU-41">
          <mxGeometry y="30" width="2380" height="38" as="geometry" />
        </mxCell>
        <mxCell id="qV6dKlDI1EXLV0EOjrcU-43" value="Id" style="shape=partialRectangle;html=1;whiteSpace=wrap;connectable=0;strokeColor=inherit;overflow=hidden;fillColor=none;top=0;left=0;bottom=0;right=0;pointerEvents=1;fontSize=16;" vertex="1" parent="qV6dKlDI1EXLV0EOjrcU-42">
          <mxGeometry width="370" height="38" as="geometry">
            <mxRectangle width="370" height="38" as="alternateBounds" />
          </mxGeometry>
        </mxCell>
        <mxCell id="qV6dKlDI1EXLV0EOjrcU-44" value="Id_source" style="shape=partialRectangle;html=1;whiteSpace=wrap;connectable=0;strokeColor=inherit;overflow=hidden;fillColor=none;top=0;left=0;bottom=0;right=0;pointerEvents=1;fontSize=16;" vertex="1" parent="qV6dKlDI1EXLV0EOjrcU-42">
          <mxGeometry x="370" width="100" height="38" as="geometry">
            <mxRectangle width="100" height="38" as="alternateBounds" />
          </mxGeometry>
        </mxCell>
        <mxCell id="qV6dKlDI1EXLV0EOjrcU-45" value="Nom" style="shape=partialRectangle;html=1;whiteSpace=wrap;connectable=0;strokeColor=inherit;overflow=hidden;fillColor=none;top=0;left=0;bottom=0;right=0;pointerEvents=1;fontSize=16;" vertex="1" parent="qV6dKlDI1EXLV0EOjrcU-42">
          <mxGeometry x="470" width="90" height="38" as="geometry">
            <mxRectangle width="90" height="38" as="alternateBounds" />
          </mxGeometry>
        </mxCell>
        <mxCell id="qV6dKlDI1EXLV0EOjrcU-54" value="&lt;br&gt;&lt;span style=&quot;color: rgb(0, 0, 0); font-family: Helvetica; font-size: 16px; font-style: normal; font-variant-ligatures: normal; font-variant-caps: normal; font-weight: 400; letter-spacing: normal; orphans: 2; text-align: center; text-indent: 0px; text-transform: none; widows: 2; word-spacing: 0px; -webkit-text-stroke-width: 0px; white-space: normal; background-color: rgb(251, 251, 251); text-decoration-thickness: initial; text-decoration-style: initial; text-decoration-color: initial; display: inline !important; float: none;&quot;&gt;id_personne_src&lt;/span&gt;&lt;div&gt;&lt;br/&gt;&lt;/div&gt;" style="shape=partialRectangle;html=1;whiteSpace=wrap;connectable=0;strokeColor=inherit;overflow=hidden;fillColor=none;top=0;left=0;bottom=0;right=0;pointerEvents=1;fontSize=16;" vertex="1" parent="qV6dKlDI1EXLV0EOjrcU-42">
          <mxGeometry x="560" width="140" height="38" as="geometry">
            <mxRectangle width="140" height="38" as="alternateBounds" />
          </mxGeometry>
        </mxCell>
        <mxCell id="qV6dKlDI1EXLV0EOjrcU-57" value="id_personne" style="shape=partialRectangle;html=1;whiteSpace=wrap;connectable=0;strokeColor=inherit;overflow=hidden;fillColor=none;top=0;left=0;bottom=0;right=0;pointerEvents=1;fontSize=16;" vertex="1" parent="qV6dKlDI1EXLV0EOjrcU-42">
          <mxGeometry x="700" width="420" height="38" as="geometry">
            <mxRectangle width="420" height="38" as="alternateBounds" />
          </mxGeometry>
        </mxCell>
        <mxCell id="qV6dKlDI1EXLV0EOjrcU-100" value="ontologyProperty" style="shape=partialRectangle;html=1;whiteSpace=wrap;connectable=0;strokeColor=inherit;overflow=hidden;fillColor=none;top=0;left=0;bottom=0;right=0;pointerEvents=1;fontSize=16;" vertex="1" parent="qV6dKlDI1EXLV0EOjrcU-42">
          <mxGeometry x="1120" width="420" height="38" as="geometry">
            <mxRectangle width="420" height="38" as="alternateBounds" />
          </mxGeometry>
        </mxCell>
        <mxCell id="qV6dKlDI1EXLV0EOjrcU-103" value="resourceXresourceId" style="shape=partialRectangle;html=1;whiteSpace=wrap;connectable=0;strokeColor=inherit;overflow=hidden;fillColor=none;top=0;left=0;bottom=0;right=0;pointerEvents=1;fontSize=16;" vertex="1" parent="qV6dKlDI1EXLV0EOjrcU-42">
          <mxGeometry x="1540" width="420" height="38" as="geometry">
            <mxRectangle width="420" height="38" as="alternateBounds" />
          </mxGeometry>
        </mxCell>
        <mxCell id="qV6dKlDI1EXLV0EOjrcU-106" value="inverseOntologyProperty" style="shape=partialRectangle;html=1;whiteSpace=wrap;connectable=0;strokeColor=inherit;overflow=hidden;fillColor=none;top=0;left=0;bottom=0;right=0;pointerEvents=1;fontSize=16;" vertex="1" parent="qV6dKlDI1EXLV0EOjrcU-42">
          <mxGeometry x="1960" width="420" height="38" as="geometry">
            <mxRectangle width="420" height="38" as="alternateBounds" />
          </mxGeometry>
        </mxCell>
        <mxCell id="qV6dKlDI1EXLV0EOjrcU-46" value="" style="shape=tableRow;horizontal=0;startSize=0;swimlaneHead=0;swimlaneBody=0;strokeColor=inherit;top=0;left=0;bottom=0;right=0;collapsible=0;dropTarget=0;fillColor=none;points=[[0,0.5],[1,0.5]];portConstraint=eastwest;fontSize=16;" vertex="1" parent="qV6dKlDI1EXLV0EOjrcU-41">
          <mxGeometry y="68" width="2380" height="40" as="geometry" />
        </mxCell>
        <mxCell id="qV6dKlDI1EXLV0EOjrcU-47" value="380c0dac-7900-4b0c-bb08-28cdd613be5d" style="shape=partialRectangle;html=1;whiteSpace=wrap;connectable=0;strokeColor=inherit;overflow=hidden;fillColor=none;top=0;left=0;bottom=0;right=0;pointerEvents=1;fontSize=16;" vertex="1" parent="qV6dKlDI1EXLV0EOjrcU-46">
          <mxGeometry width="370" height="40" as="geometry">
            <mxRectangle width="370" height="40" as="alternateBounds" />
          </mxGeometry>
        </mxCell>
        <mxCell id="qV6dKlDI1EXLV0EOjrcU-48" value="1" style="shape=partialRectangle;html=1;whiteSpace=wrap;connectable=0;strokeColor=inherit;overflow=hidden;fillColor=none;top=0;left=0;bottom=0;right=0;pointerEvents=1;fontSize=16;" vertex="1" parent="qV6dKlDI1EXLV0EOjrcU-46">
          <mxGeometry x="370" width="100" height="40" as="geometry">
            <mxRectangle width="100" height="40" as="alternateBounds" />
          </mxGeometry>
        </mxCell>
        <mxCell id="qV6dKlDI1EXLV0EOjrcU-49" value="..." style="shape=partialRectangle;html=1;whiteSpace=wrap;connectable=0;strokeColor=inherit;overflow=hidden;fillColor=none;top=0;left=0;bottom=0;right=0;pointerEvents=1;fontSize=16;" vertex="1" parent="qV6dKlDI1EXLV0EOjrcU-46">
          <mxGeometry x="470" width="90" height="40" as="geometry">
            <mxRectangle width="90" height="40" as="alternateBounds" />
          </mxGeometry>
        </mxCell>
        <mxCell id="qV6dKlDI1EXLV0EOjrcU-55" value="2" style="shape=partialRectangle;html=1;whiteSpace=wrap;connectable=0;strokeColor=inherit;overflow=hidden;fillColor=none;top=0;left=0;bottom=0;right=0;pointerEvents=1;fontSize=16;" vertex="1" parent="qV6dKlDI1EXLV0EOjrcU-46">
          <mxGeometry x="560" width="140" height="40" as="geometry">
            <mxRectangle width="140" height="40" as="alternateBounds" />
          </mxGeometry>
        </mxCell>
        <mxCell id="qV6dKlDI1EXLV0EOjrcU-58" value="&#xa;&lt;span style=&quot;color: rgb(0, 0, 0); font-family: Helvetica; font-size: 16px; font-style: normal; font-variant-ligatures: normal; font-variant-caps: normal; font-weight: 400; letter-spacing: normal; orphans: 2; text-align: center; text-indent: 0px; text-transform: none; widows: 2; word-spacing: 0px; -webkit-text-stroke-width: 0px; white-space: normal; background-color: rgb(251, 251, 251); text-decoration-thickness: initial; text-decoration-style: initial; text-decoration-color: initial; display: inline !important; float: none;&quot;&gt;8ba35c98-e479-4b97-8c4c-9f4465d0ec52&lt;/span&gt;&#xa;&#xa;" style="shape=partialRectangle;html=1;whiteSpace=wrap;connectable=0;strokeColor=inherit;overflow=hidden;fillColor=none;top=0;left=0;bottom=0;right=0;pointerEvents=1;fontSize=16;" vertex="1" parent="qV6dKlDI1EXLV0EOjrcU-46">
          <mxGeometry x="700" width="420" height="40" as="geometry">
            <mxRectangle width="420" height="40" as="alternateBounds" />
          </mxGeometry>
        </mxCell>
        <mxCell id="qV6dKlDI1EXLV0EOjrcU-101" value="&quot;http://www.cidoc-crm.org/cidoc-crm/P67_refers_to&quot;" style="shape=partialRectangle;html=1;whiteSpace=wrap;connectable=0;strokeColor=inherit;overflow=hidden;fillColor=none;top=0;left=0;bottom=0;right=0;pointerEvents=1;fontSize=16;" vertex="1" parent="qV6dKlDI1EXLV0EOjrcU-46">
          <mxGeometry x="1120" width="420" height="40" as="geometry">
            <mxRectangle width="420" height="40" as="alternateBounds" />
          </mxGeometry>
        </mxCell>
        <mxCell id="qV6dKlDI1EXLV0EOjrcU-104" value="229583dc-cad1-4865-a043-22d68034e6fa" style="shape=partialRectangle;html=1;whiteSpace=wrap;connectable=0;strokeColor=inherit;overflow=hidden;fillColor=none;top=0;left=0;bottom=0;right=0;pointerEvents=1;fontSize=16;" vertex="1" parent="qV6dKlDI1EXLV0EOjrcU-46">
          <mxGeometry x="1540" width="420" height="40" as="geometry">
            <mxRectangle width="420" height="40" as="alternateBounds" />
          </mxGeometry>
        </mxCell>
        <mxCell id="qV6dKlDI1EXLV0EOjrcU-107" value="&quot;http://www.cidoc-crm.org/cidoc-crm/P67i_is_referred_to_by&quot;" style="shape=partialRectangle;html=1;whiteSpace=wrap;connectable=0;strokeColor=inherit;overflow=hidden;fillColor=none;top=0;left=0;bottom=0;right=0;pointerEvents=1;fontSize=16;" vertex="1" parent="qV6dKlDI1EXLV0EOjrcU-46">
          <mxGeometry x="1960" width="420" height="40" as="geometry">
            <mxRectangle width="420" height="40" as="alternateBounds" />
          </mxGeometry>
        </mxCell>
        <mxCell id="qV6dKlDI1EXLV0EOjrcU-50" value="" style="shape=tableRow;horizontal=0;startSize=0;swimlaneHead=0;swimlaneBody=0;strokeColor=inherit;top=0;left=0;bottom=0;right=0;collapsible=0;dropTarget=0;fillColor=none;points=[[0,0.5],[1,0.5]];portConstraint=eastwest;fontSize=16;" vertex="1" parent="qV6dKlDI1EXLV0EOjrcU-41">
          <mxGeometry y="108" width="2380" height="40" as="geometry" />
        </mxCell>
        <mxCell id="qV6dKlDI1EXLV0EOjrcU-51" value="8ba35c98-e479-4b97-8c4c-9f4465d0ec52" style="shape=partialRectangle;html=1;whiteSpace=wrap;connectable=0;strokeColor=inherit;overflow=hidden;fillColor=none;top=0;left=0;bottom=0;right=0;pointerEvents=1;fontSize=16;" vertex="1" parent="qV6dKlDI1EXLV0EOjrcU-50">
          <mxGeometry width="370" height="40" as="geometry">
            <mxRectangle width="370" height="40" as="alternateBounds" />
          </mxGeometry>
        </mxCell>
        <mxCell id="qV6dKlDI1EXLV0EOjrcU-52" value="2" style="shape=partialRectangle;html=1;whiteSpace=wrap;connectable=0;strokeColor=inherit;overflow=hidden;fillColor=none;top=0;left=0;bottom=0;right=0;pointerEvents=1;fontSize=16;" vertex="1" parent="qV6dKlDI1EXLV0EOjrcU-50">
          <mxGeometry x="370" width="100" height="40" as="geometry">
            <mxRectangle width="100" height="40" as="alternateBounds" />
          </mxGeometry>
        </mxCell>
        <mxCell id="qV6dKlDI1EXLV0EOjrcU-53" value="..." style="shape=partialRectangle;html=1;whiteSpace=wrap;connectable=0;strokeColor=inherit;overflow=hidden;fillColor=none;top=0;left=0;bottom=0;right=0;pointerEvents=1;fontSize=16;" vertex="1" parent="qV6dKlDI1EXLV0EOjrcU-50">
          <mxGeometry x="470" width="90" height="40" as="geometry">
            <mxRectangle width="90" height="40" as="alternateBounds" />
          </mxGeometry>
        </mxCell>
        <mxCell id="qV6dKlDI1EXLV0EOjrcU-56" value="1" style="shape=partialRectangle;html=1;whiteSpace=wrap;connectable=0;strokeColor=inherit;overflow=hidden;fillColor=none;top=0;left=0;bottom=0;right=0;pointerEvents=1;fontSize=16;" vertex="1" parent="qV6dKlDI1EXLV0EOjrcU-50">
          <mxGeometry x="560" width="140" height="40" as="geometry">
            <mxRectangle width="140" height="40" as="alternateBounds" />
          </mxGeometry>
        </mxCell>
        <mxCell id="qV6dKlDI1EXLV0EOjrcU-59" value="&#xa;&lt;span style=&quot;color: rgb(0, 0, 0); font-family: Helvetica; font-size: 16px; font-style: normal; font-variant-ligatures: normal; font-variant-caps: normal; font-weight: 400; letter-spacing: normal; orphans: 2; text-align: center; text-indent: 0px; text-transform: none; widows: 2; word-spacing: 0px; -webkit-text-stroke-width: 0px; white-space: normal; background-color: rgb(251, 251, 251); text-decoration-thickness: initial; text-decoration-style: initial; text-decoration-color: initial; display: inline !important; float: none;&quot;&gt;380c0dac-7900-4b0c-bb08-28cdd613be5d&lt;/span&gt;&#xa;&#xa;" style="shape=partialRectangle;html=1;whiteSpace=wrap;connectable=0;strokeColor=inherit;overflow=hidden;fillColor=none;top=0;left=0;bottom=0;right=0;pointerEvents=1;fontSize=16;" vertex="1" parent="qV6dKlDI1EXLV0EOjrcU-50">
          <mxGeometry x="700" width="420" height="40" as="geometry">
            <mxRectangle width="420" height="40" as="alternateBounds" />
          </mxGeometry>
        </mxCell>
        <mxCell id="qV6dKlDI1EXLV0EOjrcU-102" value="&quot;http://www.cidoc-crm.org/cidoc-crm/P67_refers_to&quot;" style="shape=partialRectangle;html=1;whiteSpace=wrap;connectable=0;strokeColor=inherit;overflow=hidden;fillColor=none;top=0;left=0;bottom=0;right=0;pointerEvents=1;fontSize=16;" vertex="1" parent="qV6dKlDI1EXLV0EOjrcU-50">
          <mxGeometry x="1120" width="420" height="40" as="geometry">
            <mxRectangle width="420" height="40" as="alternateBounds" />
          </mxGeometry>
        </mxCell>
        <mxCell id="qV6dKlDI1EXLV0EOjrcU-105" value="09970b2e-c4e0-45ff-b015-3e4efae35aa4" style="shape=partialRectangle;html=1;whiteSpace=wrap;connectable=0;strokeColor=inherit;overflow=hidden;fillColor=none;top=0;left=0;bottom=0;right=0;pointerEvents=1;fontSize=16;" vertex="1" parent="qV6dKlDI1EXLV0EOjrcU-50">
          <mxGeometry x="1540" width="420" height="40" as="geometry">
            <mxRectangle width="420" height="40" as="alternateBounds" />
          </mxGeometry>
        </mxCell>
        <UserObject label="&quot;http://www.cidoc-crm.org/cidoc-crm/P67i_is_referred_to_by&quot;" link="&quot;http://www.cidoc-crm.org/cidoc-crm/P67i_is_referred_to_by&quot;" id="qV6dKlDI1EXLV0EOjrcU-108">
          <mxCell style="shape=partialRectangle;html=1;whiteSpace=wrap;connectable=0;strokeColor=inherit;overflow=hidden;fillColor=none;top=0;left=0;bottom=0;right=0;pointerEvents=1;fontSize=16;" vertex="1" parent="qV6dKlDI1EXLV0EOjrcU-50">
            <mxGeometry x="1960" width="420" height="40" as="geometry">
              <mxRectangle width="420" height="40" as="alternateBounds" />
            </mxGeometry>
          </mxCell>
        </UserObject>
        <mxCell id="qV6dKlDI1EXLV0EOjrcU-63" value="Personne" style="shape=table;startSize=30;container=1;collapsible=0;childLayout=tableLayout;strokeColor=default;fontSize=16;" vertex="1" parent="1">
          <mxGeometry x="771" y="1094" width="450" height="160" as="geometry" />
        </mxCell>
        <mxCell id="qV6dKlDI1EXLV0EOjrcU-64" value="" style="shape=tableRow;horizontal=0;startSize=0;swimlaneHead=0;swimlaneBody=0;strokeColor=inherit;top=0;left=0;bottom=0;right=0;collapsible=0;dropTarget=0;fillColor=none;points=[[0,0.5],[1,0.5]];portConstraint=eastwest;fontSize=16;" vertex="1" parent="qV6dKlDI1EXLV0EOjrcU-63">
          <mxGeometry y="30" width="450" height="50" as="geometry" />
        </mxCell>
        <mxCell id="qV6dKlDI1EXLV0EOjrcU-65" value="Id" style="shape=partialRectangle;html=1;whiteSpace=wrap;connectable=0;strokeColor=inherit;overflow=hidden;fillColor=none;top=0;left=0;bottom=0;right=0;pointerEvents=1;fontSize=16;" vertex="1" parent="qV6dKlDI1EXLV0EOjrcU-64">
          <mxGeometry width="370" height="50" as="geometry">
            <mxRectangle width="370" height="50" as="alternateBounds" />
          </mxGeometry>
        </mxCell>
        <mxCell id="qV6dKlDI1EXLV0EOjrcU-67" value="Nom" style="shape=partialRectangle;html=1;whiteSpace=wrap;connectable=0;strokeColor=inherit;overflow=hidden;fillColor=none;top=0;left=0;bottom=0;right=0;pointerEvents=1;fontSize=16;" vertex="1" parent="qV6dKlDI1EXLV0EOjrcU-64">
          <mxGeometry x="370" width="80" height="50" as="geometry">
            <mxRectangle width="80" height="50" as="alternateBounds" />
          </mxGeometry>
        </mxCell>
        <mxCell id="qV6dKlDI1EXLV0EOjrcU-68" value="" style="shape=tableRow;horizontal=0;startSize=0;swimlaneHead=0;swimlaneBody=0;strokeColor=inherit;top=0;left=0;bottom=0;right=0;collapsible=0;dropTarget=0;fillColor=none;points=[[0,0.5],[1,0.5]];portConstraint=eastwest;fontSize=16;" vertex="1" parent="qV6dKlDI1EXLV0EOjrcU-63">
          <mxGeometry y="80" width="450" height="40" as="geometry" />
        </mxCell>
        <mxCell id="qV6dKlDI1EXLV0EOjrcU-69" value="380c0dac-7900-4b0c-bb08-28cdd613be5d" style="shape=partialRectangle;html=1;whiteSpace=wrap;connectable=0;strokeColor=inherit;overflow=hidden;fillColor=none;top=0;left=0;bottom=0;right=0;pointerEvents=1;fontSize=16;" vertex="1" parent="qV6dKlDI1EXLV0EOjrcU-68">
          <mxGeometry width="370" height="40" as="geometry">
            <mxRectangle width="370" height="40" as="alternateBounds" />
          </mxGeometry>
        </mxCell>
        <mxCell id="qV6dKlDI1EXLV0EOjrcU-71" value="..." style="shape=partialRectangle;html=1;whiteSpace=wrap;connectable=0;strokeColor=inherit;overflow=hidden;fillColor=none;top=0;left=0;bottom=0;right=0;pointerEvents=1;fontSize=16;" vertex="1" parent="qV6dKlDI1EXLV0EOjrcU-68">
          <mxGeometry x="370" width="80" height="40" as="geometry">
            <mxRectangle width="80" height="40" as="alternateBounds" />
          </mxGeometry>
        </mxCell>
        <mxCell id="qV6dKlDI1EXLV0EOjrcU-72" value="" style="shape=tableRow;horizontal=0;startSize=0;swimlaneHead=0;swimlaneBody=0;strokeColor=inherit;top=0;left=0;bottom=0;right=0;collapsible=0;dropTarget=0;fillColor=none;points=[[0,0.5],[1,0.5]];portConstraint=eastwest;fontSize=16;" vertex="1" parent="qV6dKlDI1EXLV0EOjrcU-63">
          <mxGeometry y="120" width="450" height="40" as="geometry" />
        </mxCell>
        <mxCell id="qV6dKlDI1EXLV0EOjrcU-73" value="8ba35c98-e479-4b97-8c4c-9f4465d0ec52" style="shape=partialRectangle;html=1;whiteSpace=wrap;connectable=0;strokeColor=inherit;overflow=hidden;fillColor=none;top=0;left=0;bottom=0;right=0;pointerEvents=1;fontSize=16;" vertex="1" parent="qV6dKlDI1EXLV0EOjrcU-72">
          <mxGeometry width="370" height="40" as="geometry">
            <mxRectangle width="370" height="40" as="alternateBounds" />
          </mxGeometry>
        </mxCell>
        <mxCell id="qV6dKlDI1EXLV0EOjrcU-75" value="..." style="shape=partialRectangle;html=1;whiteSpace=wrap;connectable=0;strokeColor=inherit;overflow=hidden;fillColor=none;top=0;left=0;bottom=0;right=0;pointerEvents=1;fontSize=16;" vertex="1" parent="qV6dKlDI1EXLV0EOjrcU-72">
          <mxGeometry x="370" width="80" height="40" as="geometry">
            <mxRectangle width="80" height="40" as="alternateBounds" />
          </mxGeometry>
        </mxCell>
        <mxCell id="qV6dKlDI1EXLV0EOjrcU-110" value="Adresse" style="shape=table;startSize=30;container=1;collapsible=0;childLayout=tableLayout;strokeColor=default;fontSize=16;" vertex="1" parent="1">
          <mxGeometry x="-1662" y="1094" width="2140" height="147.99995930989587" as="geometry" />
        </mxCell>
        <mxCell id="qV6dKlDI1EXLV0EOjrcU-111" value="" style="shape=tableRow;horizontal=0;startSize=0;swimlaneHead=0;swimlaneBody=0;strokeColor=inherit;top=0;left=0;bottom=0;right=0;collapsible=0;dropTarget=0;fillColor=none;points=[[0,0.5],[1,0.5]];portConstraint=eastwest;fontSize=16;" vertex="1" parent="qV6dKlDI1EXLV0EOjrcU-110">
          <mxGeometry y="30" width="2140" height="38" as="geometry" />
        </mxCell>
        <mxCell id="qV6dKlDI1EXLV0EOjrcU-112" value="Id" style="shape=partialRectangle;html=1;whiteSpace=wrap;connectable=0;strokeColor=inherit;overflow=hidden;fillColor=none;top=0;left=0;bottom=0;right=0;pointerEvents=1;fontSize=16;" vertex="1" parent="qV6dKlDI1EXLV0EOjrcU-111">
          <mxGeometry width="370" height="38" as="geometry">
            <mxRectangle width="370" height="38" as="alternateBounds" />
          </mxGeometry>
        </mxCell>
        <mxCell id="qV6dKlDI1EXLV0EOjrcU-114" value="Nom" style="shape=partialRectangle;html=1;whiteSpace=wrap;connectable=0;strokeColor=inherit;overflow=hidden;fillColor=none;top=0;left=0;bottom=0;right=0;pointerEvents=1;fontSize=16;" vertex="1" parent="qV6dKlDI1EXLV0EOjrcU-111">
          <mxGeometry x="370" width="90" height="38" as="geometry">
            <mxRectangle width="90" height="38" as="alternateBounds" />
          </mxGeometry>
        </mxCell>
        <mxCell id="qV6dKlDI1EXLV0EOjrcU-116" value="id_personne" style="shape=partialRectangle;html=1;whiteSpace=wrap;connectable=0;strokeColor=inherit;overflow=hidden;fillColor=none;top=0;left=0;bottom=0;right=0;pointerEvents=1;fontSize=16;" vertex="1" parent="qV6dKlDI1EXLV0EOjrcU-111">
          <mxGeometry x="460" width="420" height="38" as="geometry">
            <mxRectangle width="420" height="38" as="alternateBounds" />
          </mxGeometry>
        </mxCell>
        <mxCell id="qV6dKlDI1EXLV0EOjrcU-117" value="ontologyProperty" style="shape=partialRectangle;html=1;whiteSpace=wrap;connectable=0;strokeColor=inherit;overflow=hidden;fillColor=none;top=0;left=0;bottom=0;right=0;pointerEvents=1;fontSize=16;" vertex="1" parent="qV6dKlDI1EXLV0EOjrcU-111">
          <mxGeometry x="880" width="420" height="38" as="geometry">
            <mxRectangle width="420" height="38" as="alternateBounds" />
          </mxGeometry>
        </mxCell>
        <mxCell id="qV6dKlDI1EXLV0EOjrcU-118" value="resourceXresourceId" style="shape=partialRectangle;html=1;whiteSpace=wrap;connectable=0;strokeColor=inherit;overflow=hidden;fillColor=none;top=0;left=0;bottom=0;right=0;pointerEvents=1;fontSize=16;" vertex="1" parent="qV6dKlDI1EXLV0EOjrcU-111">
          <mxGeometry x="1300" width="420" height="38" as="geometry">
            <mxRectangle width="420" height="38" as="alternateBounds" />
          </mxGeometry>
        </mxCell>
        <mxCell id="qV6dKlDI1EXLV0EOjrcU-119" value="inverseOntologyProperty" style="shape=partialRectangle;html=1;whiteSpace=wrap;connectable=0;strokeColor=inherit;overflow=hidden;fillColor=none;top=0;left=0;bottom=0;right=0;pointerEvents=1;fontSize=16;" vertex="1" parent="qV6dKlDI1EXLV0EOjrcU-111">
          <mxGeometry x="1720" width="420" height="38" as="geometry">
            <mxRectangle width="420" height="38" as="alternateBounds" />
          </mxGeometry>
        </mxCell>
        <mxCell id="qV6dKlDI1EXLV0EOjrcU-120" value="" style="shape=tableRow;horizontal=0;startSize=0;swimlaneHead=0;swimlaneBody=0;strokeColor=inherit;top=0;left=0;bottom=0;right=0;collapsible=0;dropTarget=0;fillColor=none;points=[[0,0.5],[1,0.5]];portConstraint=eastwest;fontSize=16;" vertex="1" parent="qV6dKlDI1EXLV0EOjrcU-110">
          <mxGeometry y="68" width="2140" height="40" as="geometry" />
        </mxCell>
        <mxCell id="qV6dKlDI1EXLV0EOjrcU-121" value="380c0dac-7900-4b0c-bb08-28cdd613be5d" style="shape=partialRectangle;html=1;whiteSpace=wrap;connectable=0;strokeColor=inherit;overflow=hidden;fillColor=none;top=0;left=0;bottom=0;right=0;pointerEvents=1;fontSize=16;" vertex="1" parent="qV6dKlDI1EXLV0EOjrcU-120">
          <mxGeometry width="370" height="40" as="geometry">
            <mxRectangle width="370" height="40" as="alternateBounds" />
          </mxGeometry>
        </mxCell>
        <mxCell id="qV6dKlDI1EXLV0EOjrcU-123" value="..." style="shape=partialRectangle;html=1;whiteSpace=wrap;connectable=0;strokeColor=inherit;overflow=hidden;fillColor=none;top=0;left=0;bottom=0;right=0;pointerEvents=1;fontSize=16;" vertex="1" parent="qV6dKlDI1EXLV0EOjrcU-120">
          <mxGeometry x="370" width="90" height="40" as="geometry">
            <mxRectangle width="90" height="40" as="alternateBounds" />
          </mxGeometry>
        </mxCell>
        <mxCell id="qV6dKlDI1EXLV0EOjrcU-125" value="&#xa;&lt;span style=&quot;color: rgb(0, 0, 0); font-family: Helvetica; font-size: 16px; font-style: normal; font-variant-ligatures: normal; font-variant-caps: normal; font-weight: 400; letter-spacing: normal; orphans: 2; text-align: center; text-indent: 0px; text-transform: none; widows: 2; word-spacing: 0px; -webkit-text-stroke-width: 0px; white-space: normal; background-color: rgb(251, 251, 251); text-decoration-thickness: initial; text-decoration-style: initial; text-decoration-color: initial; display: inline !important; float: none;&quot;&gt;8ba35c98-e479-4b97-8c4c-9f4465d0ec52&lt;/span&gt;&#xa;&#xa;" style="shape=partialRectangle;html=1;whiteSpace=wrap;connectable=0;strokeColor=inherit;overflow=hidden;fillColor=none;top=0;left=0;bottom=0;right=0;pointerEvents=1;fontSize=16;" vertex="1" parent="qV6dKlDI1EXLV0EOjrcU-120">
          <mxGeometry x="460" width="420" height="40" as="geometry">
            <mxRectangle width="420" height="40" as="alternateBounds" />
          </mxGeometry>
        </mxCell>
        <mxCell id="qV6dKlDI1EXLV0EOjrcU-126" value="&quot;http://www.cidoc-crm.org/cidoc-crm/P67_refers_to&quot;" style="shape=partialRectangle;html=1;whiteSpace=wrap;connectable=0;strokeColor=inherit;overflow=hidden;fillColor=none;top=0;left=0;bottom=0;right=0;pointerEvents=1;fontSize=16;" vertex="1" parent="qV6dKlDI1EXLV0EOjrcU-120">
          <mxGeometry x="880" width="420" height="40" as="geometry">
            <mxRectangle width="420" height="40" as="alternateBounds" />
          </mxGeometry>
        </mxCell>
        <mxCell id="qV6dKlDI1EXLV0EOjrcU-127" value="229583dc-cad1-4865-a043-22d68034e6fa" style="shape=partialRectangle;html=1;whiteSpace=wrap;connectable=0;strokeColor=inherit;overflow=hidden;fillColor=none;top=0;left=0;bottom=0;right=0;pointerEvents=1;fontSize=16;" vertex="1" parent="qV6dKlDI1EXLV0EOjrcU-120">
          <mxGeometry x="1300" width="420" height="40" as="geometry">
            <mxRectangle width="420" height="40" as="alternateBounds" />
          </mxGeometry>
        </mxCell>
        <mxCell id="qV6dKlDI1EXLV0EOjrcU-128" value="&quot;http://www.cidoc-crm.org/cidoc-crm/P67i_is_referred_to_by&quot;" style="shape=partialRectangle;html=1;whiteSpace=wrap;connectable=0;strokeColor=inherit;overflow=hidden;fillColor=none;top=0;left=0;bottom=0;right=0;pointerEvents=1;fontSize=16;" vertex="1" parent="qV6dKlDI1EXLV0EOjrcU-120">
          <mxGeometry x="1720" width="420" height="40" as="geometry">
            <mxRectangle width="420" height="40" as="alternateBounds" />
          </mxGeometry>
        </mxCell>
        <mxCell id="qV6dKlDI1EXLV0EOjrcU-129" value="" style="shape=tableRow;horizontal=0;startSize=0;swimlaneHead=0;swimlaneBody=0;strokeColor=inherit;top=0;left=0;bottom=0;right=0;collapsible=0;dropTarget=0;fillColor=none;points=[[0,0.5],[1,0.5]];portConstraint=eastwest;fontSize=16;" vertex="1" parent="qV6dKlDI1EXLV0EOjrcU-110">
          <mxGeometry y="108" width="2140" height="40" as="geometry" />
        </mxCell>
        <mxCell id="qV6dKlDI1EXLV0EOjrcU-130" value="8ba35c98-e479-4b97-8c4c-9f4465d0ec52" style="shape=partialRectangle;html=1;whiteSpace=wrap;connectable=0;strokeColor=inherit;overflow=hidden;fillColor=none;top=0;left=0;bottom=0;right=0;pointerEvents=1;fontSize=16;" vertex="1" parent="qV6dKlDI1EXLV0EOjrcU-129">
          <mxGeometry width="370" height="40" as="geometry">
            <mxRectangle width="370" height="40" as="alternateBounds" />
          </mxGeometry>
        </mxCell>
        <mxCell id="qV6dKlDI1EXLV0EOjrcU-132" value="..." style="shape=partialRectangle;html=1;whiteSpace=wrap;connectable=0;strokeColor=inherit;overflow=hidden;fillColor=none;top=0;left=0;bottom=0;right=0;pointerEvents=1;fontSize=16;" vertex="1" parent="qV6dKlDI1EXLV0EOjrcU-129">
          <mxGeometry x="370" width="90" height="40" as="geometry">
            <mxRectangle width="90" height="40" as="alternateBounds" />
          </mxGeometry>
        </mxCell>
        <mxCell id="qV6dKlDI1EXLV0EOjrcU-134" value="&#xa;&lt;span style=&quot;color: rgb(0, 0, 0); font-family: Helvetica; font-size: 16px; font-style: normal; font-variant-ligatures: normal; font-variant-caps: normal; font-weight: 400; letter-spacing: normal; orphans: 2; text-align: center; text-indent: 0px; text-transform: none; widows: 2; word-spacing: 0px; -webkit-text-stroke-width: 0px; white-space: normal; background-color: rgb(251, 251, 251); text-decoration-thickness: initial; text-decoration-style: initial; text-decoration-color: initial; display: inline !important; float: none;&quot;&gt;380c0dac-7900-4b0c-bb08-28cdd613be5d&lt;/span&gt;&#xa;&#xa;" style="shape=partialRectangle;html=1;whiteSpace=wrap;connectable=0;strokeColor=inherit;overflow=hidden;fillColor=none;top=0;left=0;bottom=0;right=0;pointerEvents=1;fontSize=16;" vertex="1" parent="qV6dKlDI1EXLV0EOjrcU-129">
          <mxGeometry x="460" width="420" height="40" as="geometry">
            <mxRectangle width="420" height="40" as="alternateBounds" />
          </mxGeometry>
        </mxCell>
        <mxCell id="qV6dKlDI1EXLV0EOjrcU-135" value="&quot;http://www.cidoc-crm.org/cidoc-crm/P67_refers_to&quot;" style="shape=partialRectangle;html=1;whiteSpace=wrap;connectable=0;strokeColor=inherit;overflow=hidden;fillColor=none;top=0;left=0;bottom=0;right=0;pointerEvents=1;fontSize=16;" vertex="1" parent="qV6dKlDI1EXLV0EOjrcU-129">
          <mxGeometry x="880" width="420" height="40" as="geometry">
            <mxRectangle width="420" height="40" as="alternateBounds" />
          </mxGeometry>
        </mxCell>
        <mxCell id="qV6dKlDI1EXLV0EOjrcU-136" value="09970b2e-c4e0-45ff-b015-3e4efae35aa4" style="shape=partialRectangle;html=1;whiteSpace=wrap;connectable=0;strokeColor=inherit;overflow=hidden;fillColor=none;top=0;left=0;bottom=0;right=0;pointerEvents=1;fontSize=16;" vertex="1" parent="qV6dKlDI1EXLV0EOjrcU-129">
          <mxGeometry x="1300" width="420" height="40" as="geometry">
            <mxRectangle width="420" height="40" as="alternateBounds" />
          </mxGeometry>
        </mxCell>
        <UserObject label="&quot;http://www.cidoc-crm.org/cidoc-crm/P67i_is_referred_to_by&quot;" link="&quot;http://www.cidoc-crm.org/cidoc-crm/P67i_is_referred_to_by&quot;" id="qV6dKlDI1EXLV0EOjrcU-137">
          <mxCell style="shape=partialRectangle;html=1;whiteSpace=wrap;connectable=0;strokeColor=inherit;overflow=hidden;fillColor=none;top=0;left=0;bottom=0;right=0;pointerEvents=1;fontSize=16;" vertex="1" parent="qV6dKlDI1EXLV0EOjrcU-129">
            <mxGeometry x="1720" width="420" height="40" as="geometry">
              <mxRectangle width="420" height="40" as="alternateBounds" />
            </mxGeometry>
          </mxCell>
        </UserObject>
      </root>
    </mxGraphModel>
  </diagram>
</mxfile>
